<mxfile host="app.diagrams.net" modified="2024-04-22T05:58:55.763Z" agent="Mozilla/5.0 (Windows NT 10.0; Win64; x64) AppleWebKit/537.36 (KHTML, like Gecko) Chrome/123.0.0.0 Safari/537.36 Edg/123.0.0.0" etag="G7bFAEaJ6xGNQbPtrML5" version="24.2.7" type="github">
  <diagram name="第 1 页" id="UQFz4RQ5BdOQuQtkXWNA">
    <mxGraphModel dx="2054" dy="1144" grid="1" gridSize="10" guides="0" tooltips="1" connect="1" arrows="1" fold="1" page="1" pageScale="1" pageWidth="827" pageHeight="1169" math="0" shadow="0">
      <root>
        <mxCell id="0" />
        <mxCell id="1" parent="0" />
        <mxCell id="vQjdyIGuHmJ7jAZlMQCY-8" value="" style="group" vertex="1" connectable="0" parent="1">
          <mxGeometry x="113" y="302" width="70" height="110" as="geometry" />
        </mxCell>
        <mxCell id="vQjdyIGuHmJ7jAZlMQCY-1" value="管理员" style="ellipse;whiteSpace=wrap;html=1;aspect=fixed;" vertex="1" parent="vQjdyIGuHmJ7jAZlMQCY-8">
          <mxGeometry x="15" width="40" height="40" as="geometry" />
        </mxCell>
        <mxCell id="vQjdyIGuHmJ7jAZlMQCY-2" value="" style="endArrow=none;html=1;rounded=0;fontSize=12;startSize=8;endSize=8;curved=1;" edge="1" parent="vQjdyIGuHmJ7jAZlMQCY-8">
          <mxGeometry width="50" height="50" relative="1" as="geometry">
            <mxPoint y="60" as="sourcePoint" />
            <mxPoint x="70" y="60" as="targetPoint" />
          </mxGeometry>
        </mxCell>
        <mxCell id="vQjdyIGuHmJ7jAZlMQCY-5" value="" style="endArrow=none;html=1;rounded=0;fontSize=12;startSize=8;endSize=8;curved=1;entryX=0.5;entryY=1;entryDx=0;entryDy=0;" edge="1" parent="vQjdyIGuHmJ7jAZlMQCY-8" target="vQjdyIGuHmJ7jAZlMQCY-1">
          <mxGeometry width="50" height="50" relative="1" as="geometry">
            <mxPoint x="35" y="80" as="sourcePoint" />
            <mxPoint x="85" y="70" as="targetPoint" />
          </mxGeometry>
        </mxCell>
        <mxCell id="vQjdyIGuHmJ7jAZlMQCY-6" value="" style="endArrow=none;html=1;rounded=0;fontSize=12;startSize=8;endSize=8;curved=1;" edge="1" parent="vQjdyIGuHmJ7jAZlMQCY-8">
          <mxGeometry width="50" height="50" relative="1" as="geometry">
            <mxPoint x="15" y="110" as="sourcePoint" />
            <mxPoint x="35" y="80" as="targetPoint" />
          </mxGeometry>
        </mxCell>
        <mxCell id="vQjdyIGuHmJ7jAZlMQCY-7" value="" style="endArrow=none;html=1;rounded=0;fontSize=12;startSize=8;endSize=8;curved=1;" edge="1" parent="vQjdyIGuHmJ7jAZlMQCY-8">
          <mxGeometry width="50" height="50" relative="1" as="geometry">
            <mxPoint x="55" y="110" as="sourcePoint" />
            <mxPoint x="35" y="80" as="targetPoint" />
          </mxGeometry>
        </mxCell>
        <mxCell id="vQjdyIGuHmJ7jAZlMQCY-9" value="" style="group" vertex="1" connectable="0" parent="1">
          <mxGeometry x="150" y="789" width="70" height="110" as="geometry" />
        </mxCell>
        <mxCell id="vQjdyIGuHmJ7jAZlMQCY-10" value="教师" style="ellipse;whiteSpace=wrap;html=1;aspect=fixed;" vertex="1" parent="vQjdyIGuHmJ7jAZlMQCY-9">
          <mxGeometry x="15" width="40" height="40" as="geometry" />
        </mxCell>
        <mxCell id="vQjdyIGuHmJ7jAZlMQCY-11" value="" style="endArrow=none;html=1;rounded=0;fontSize=12;startSize=8;endSize=8;curved=1;" edge="1" parent="vQjdyIGuHmJ7jAZlMQCY-9">
          <mxGeometry width="50" height="50" relative="1" as="geometry">
            <mxPoint y="60" as="sourcePoint" />
            <mxPoint x="70" y="60" as="targetPoint" />
          </mxGeometry>
        </mxCell>
        <mxCell id="vQjdyIGuHmJ7jAZlMQCY-12" value="" style="endArrow=none;html=1;rounded=0;fontSize=12;startSize=8;endSize=8;curved=1;entryX=0.5;entryY=1;entryDx=0;entryDy=0;" edge="1" parent="vQjdyIGuHmJ7jAZlMQCY-9" target="vQjdyIGuHmJ7jAZlMQCY-10">
          <mxGeometry width="50" height="50" relative="1" as="geometry">
            <mxPoint x="35" y="80" as="sourcePoint" />
            <mxPoint x="85" y="70" as="targetPoint" />
          </mxGeometry>
        </mxCell>
        <mxCell id="vQjdyIGuHmJ7jAZlMQCY-13" value="" style="endArrow=none;html=1;rounded=0;fontSize=12;startSize=8;endSize=8;curved=1;" edge="1" parent="vQjdyIGuHmJ7jAZlMQCY-9">
          <mxGeometry width="50" height="50" relative="1" as="geometry">
            <mxPoint x="15" y="110" as="sourcePoint" />
            <mxPoint x="35" y="80" as="targetPoint" />
          </mxGeometry>
        </mxCell>
        <mxCell id="vQjdyIGuHmJ7jAZlMQCY-14" value="" style="endArrow=none;html=1;rounded=0;fontSize=12;startSize=8;endSize=8;curved=1;" edge="1" parent="vQjdyIGuHmJ7jAZlMQCY-9">
          <mxGeometry width="50" height="50" relative="1" as="geometry">
            <mxPoint x="55" y="110" as="sourcePoint" />
            <mxPoint x="35" y="80" as="targetPoint" />
          </mxGeometry>
        </mxCell>
        <mxCell id="vQjdyIGuHmJ7jAZlMQCY-21" value="" style="group" vertex="1" connectable="0" parent="1">
          <mxGeometry x="152" y="1119" width="70" height="110" as="geometry" />
        </mxCell>
        <mxCell id="vQjdyIGuHmJ7jAZlMQCY-22" value="学生" style="ellipse;whiteSpace=wrap;html=1;aspect=fixed;" vertex="1" parent="vQjdyIGuHmJ7jAZlMQCY-21">
          <mxGeometry x="15" width="40" height="40" as="geometry" />
        </mxCell>
        <mxCell id="vQjdyIGuHmJ7jAZlMQCY-23" value="" style="endArrow=none;html=1;rounded=0;fontSize=12;startSize=8;endSize=8;curved=1;" edge="1" parent="vQjdyIGuHmJ7jAZlMQCY-21">
          <mxGeometry width="50" height="50" relative="1" as="geometry">
            <mxPoint y="60" as="sourcePoint" />
            <mxPoint x="70" y="60" as="targetPoint" />
          </mxGeometry>
        </mxCell>
        <mxCell id="vQjdyIGuHmJ7jAZlMQCY-24" value="" style="endArrow=none;html=1;rounded=0;fontSize=12;startSize=8;endSize=8;curved=1;entryX=0.5;entryY=1;entryDx=0;entryDy=0;" edge="1" parent="vQjdyIGuHmJ7jAZlMQCY-21" target="vQjdyIGuHmJ7jAZlMQCY-22">
          <mxGeometry width="50" height="50" relative="1" as="geometry">
            <mxPoint x="35" y="80" as="sourcePoint" />
            <mxPoint x="85" y="70" as="targetPoint" />
          </mxGeometry>
        </mxCell>
        <mxCell id="vQjdyIGuHmJ7jAZlMQCY-25" value="" style="endArrow=none;html=1;rounded=0;fontSize=12;startSize=8;endSize=8;curved=1;" edge="1" parent="vQjdyIGuHmJ7jAZlMQCY-21">
          <mxGeometry width="50" height="50" relative="1" as="geometry">
            <mxPoint x="15" y="110" as="sourcePoint" />
            <mxPoint x="35" y="80" as="targetPoint" />
          </mxGeometry>
        </mxCell>
        <mxCell id="vQjdyIGuHmJ7jAZlMQCY-26" value="" style="endArrow=none;html=1;rounded=0;fontSize=12;startSize=8;endSize=8;curved=1;" edge="1" parent="vQjdyIGuHmJ7jAZlMQCY-21">
          <mxGeometry width="50" height="50" relative="1" as="geometry">
            <mxPoint x="55" y="110" as="sourcePoint" />
            <mxPoint x="35" y="80" as="targetPoint" />
          </mxGeometry>
        </mxCell>
        <mxCell id="vQjdyIGuHmJ7jAZlMQCY-28" value="用户管理" style="ellipse;whiteSpace=wrap;html=1;" vertex="1" parent="1">
          <mxGeometry x="283" y="239" width="110" height="40" as="geometry" />
        </mxCell>
        <mxCell id="vQjdyIGuHmJ7jAZlMQCY-29" style="edgeStyle=none;curved=1;rounded=0;orthogonalLoop=1;jettySize=auto;html=1;exitX=1;exitY=0.5;exitDx=0;exitDy=0;entryX=0;entryY=0.5;entryDx=0;entryDy=0;fontSize=12;startSize=8;endSize=8;" edge="1" parent="1" source="vQjdyIGuHmJ7jAZlMQCY-1" target="vQjdyIGuHmJ7jAZlMQCY-28">
          <mxGeometry relative="1" as="geometry" />
        </mxCell>
        <mxCell id="vQjdyIGuHmJ7jAZlMQCY-31" value="班级管理" style="ellipse;whiteSpace=wrap;html=1;" vertex="1" parent="1">
          <mxGeometry x="322" y="287" width="110" height="40" as="geometry" />
        </mxCell>
        <mxCell id="vQjdyIGuHmJ7jAZlMQCY-30" style="edgeStyle=none;curved=1;rounded=0;orthogonalLoop=1;jettySize=auto;html=1;exitX=1;exitY=0.5;exitDx=0;exitDy=0;fontSize=12;startSize=8;endSize=8;entryX=0;entryY=0.5;entryDx=0;entryDy=0;" edge="1" parent="1" source="vQjdyIGuHmJ7jAZlMQCY-1" target="vQjdyIGuHmJ7jAZlMQCY-31">
          <mxGeometry relative="1" as="geometry">
            <mxPoint x="278" y="322.0000000000001" as="targetPoint" />
          </mxGeometry>
        </mxCell>
        <mxCell id="vQjdyIGuHmJ7jAZlMQCY-32" value="课程论文要求信息管理" style="ellipse;whiteSpace=wrap;html=1;" vertex="1" parent="1">
          <mxGeometry x="312" y="337" width="130" height="40" as="geometry" />
        </mxCell>
        <mxCell id="vQjdyIGuHmJ7jAZlMQCY-33" style="edgeStyle=none;curved=1;rounded=0;orthogonalLoop=1;jettySize=auto;html=1;exitX=1;exitY=0.5;exitDx=0;exitDy=0;entryX=0;entryY=0.5;entryDx=0;entryDy=0;fontSize=12;startSize=8;endSize=8;" edge="1" parent="1" source="vQjdyIGuHmJ7jAZlMQCY-1" target="vQjdyIGuHmJ7jAZlMQCY-32">
          <mxGeometry relative="1" as="geometry" />
        </mxCell>
        <mxCell id="vQjdyIGuHmJ7jAZlMQCY-34" value="角色管理" style="ellipse;whiteSpace=wrap;html=1;" vertex="1" parent="1">
          <mxGeometry x="322" y="387" width="110" height="40" as="geometry" />
        </mxCell>
        <mxCell id="vQjdyIGuHmJ7jAZlMQCY-35" style="edgeStyle=none;curved=1;rounded=0;orthogonalLoop=1;jettySize=auto;html=1;exitX=1;exitY=0.5;exitDx=0;exitDy=0;entryX=0;entryY=0.5;entryDx=0;entryDy=0;fontSize=12;startSize=8;endSize=8;" edge="1" parent="1" source="vQjdyIGuHmJ7jAZlMQCY-1" target="vQjdyIGuHmJ7jAZlMQCY-34">
          <mxGeometry relative="1" as="geometry" />
        </mxCell>
        <mxCell id="vQjdyIGuHmJ7jAZlMQCY-36" value="菜单管理" style="ellipse;whiteSpace=wrap;html=1;" vertex="1" parent="1">
          <mxGeometry x="303" y="439" width="110" height="40" as="geometry" />
        </mxCell>
        <mxCell id="vQjdyIGuHmJ7jAZlMQCY-37" style="edgeStyle=none;curved=1;rounded=0;orthogonalLoop=1;jettySize=auto;html=1;exitX=1;exitY=0.5;exitDx=0;exitDy=0;entryX=0;entryY=0.5;entryDx=0;entryDy=0;fontSize=12;startSize=8;endSize=8;" edge="1" parent="1" source="vQjdyIGuHmJ7jAZlMQCY-1" target="vQjdyIGuHmJ7jAZlMQCY-36">
          <mxGeometry relative="1" as="geometry" />
        </mxCell>
        <mxCell id="vQjdyIGuHmJ7jAZlMQCY-38" value="登录" style="ellipse;whiteSpace=wrap;html=1;" vertex="1" parent="1">
          <mxGeometry x="267" y="192" width="110" height="40" as="geometry" />
        </mxCell>
        <mxCell id="vQjdyIGuHmJ7jAZlMQCY-40" style="edgeStyle=none;curved=1;rounded=0;orthogonalLoop=1;jettySize=auto;html=1;exitX=1;exitY=0.5;exitDx=0;exitDy=0;entryX=0;entryY=0.5;entryDx=0;entryDy=0;fontSize=12;startSize=8;endSize=8;" edge="1" parent="1" source="vQjdyIGuHmJ7jAZlMQCY-1" target="vQjdyIGuHmJ7jAZlMQCY-38">
          <mxGeometry relative="1" as="geometry" />
        </mxCell>
        <mxCell id="vQjdyIGuHmJ7jAZlMQCY-43" value="" style="endArrow=classic;html=1;rounded=0;fontSize=12;startSize=8;endSize=8;curved=1;dashed=1;" edge="1" parent="1">
          <mxGeometry width="50" height="50" relative="1" as="geometry">
            <mxPoint x="393" y="211.29000000000002" as="sourcePoint" />
            <mxPoint x="463" y="211.29000000000002" as="targetPoint" />
          </mxGeometry>
        </mxCell>
        <mxCell id="vQjdyIGuHmJ7jAZlMQCY-44" value="身份验证" style="ellipse;whiteSpace=wrap;html=1;" vertex="1" parent="1">
          <mxGeometry x="473" y="192" width="110" height="40" as="geometry" />
        </mxCell>
        <mxCell id="vQjdyIGuHmJ7jAZlMQCY-45" value="&amp;lt;&amp;lt;include&amp;gt;&amp;gt;" style="text;html=1;align=center;verticalAlign=middle;resizable=0;points=[];autosize=1;strokeColor=none;fillColor=none;fontSize=16;" vertex="1" parent="1">
          <mxGeometry x="372" y="183" width="110" height="30" as="geometry" />
        </mxCell>
        <mxCell id="vQjdyIGuHmJ7jAZlMQCY-46" value="修改个人信息" style="ellipse;whiteSpace=wrap;html=1;" vertex="1" parent="1">
          <mxGeometry x="267" y="485" width="110" height="40" as="geometry" />
        </mxCell>
        <mxCell id="vQjdyIGuHmJ7jAZlMQCY-47" style="edgeStyle=none;curved=1;rounded=0;orthogonalLoop=1;jettySize=auto;html=1;exitX=1;exitY=0.5;exitDx=0;exitDy=0;entryX=0;entryY=0.5;entryDx=0;entryDy=0;fontSize=12;startSize=8;endSize=8;" edge="1" parent="1" source="vQjdyIGuHmJ7jAZlMQCY-1" target="vQjdyIGuHmJ7jAZlMQCY-46">
          <mxGeometry relative="1" as="geometry" />
        </mxCell>
        <mxCell id="vQjdyIGuHmJ7jAZlMQCY-48" value="登录" style="ellipse;whiteSpace=wrap;html=1;" vertex="1" parent="1">
          <mxGeometry x="285" y="689" width="110" height="40" as="geometry" />
        </mxCell>
        <mxCell id="vQjdyIGuHmJ7jAZlMQCY-49" value="" style="endArrow=classic;html=1;rounded=0;fontSize=12;startSize=8;endSize=8;curved=1;dashed=1;" edge="1" parent="1">
          <mxGeometry width="50" height="50" relative="1" as="geometry">
            <mxPoint x="411" y="708.29" as="sourcePoint" />
            <mxPoint x="481" y="708.29" as="targetPoint" />
          </mxGeometry>
        </mxCell>
        <mxCell id="vQjdyIGuHmJ7jAZlMQCY-50" value="身份验证" style="ellipse;whiteSpace=wrap;html=1;" vertex="1" parent="1">
          <mxGeometry x="491" y="689" width="110" height="40" as="geometry" />
        </mxCell>
        <mxCell id="vQjdyIGuHmJ7jAZlMQCY-51" value="&amp;lt;&amp;lt;include&amp;gt;&amp;gt;" style="text;html=1;align=center;verticalAlign=middle;resizable=0;points=[];autosize=1;strokeColor=none;fillColor=none;fontSize=16;" vertex="1" parent="1">
          <mxGeometry x="390" y="680" width="110" height="30" as="geometry" />
        </mxCell>
        <mxCell id="vQjdyIGuHmJ7jAZlMQCY-52" style="edgeStyle=none;curved=1;rounded=0;orthogonalLoop=1;jettySize=auto;html=1;exitX=1;exitY=0.5;exitDx=0;exitDy=0;entryX=0;entryY=0.5;entryDx=0;entryDy=0;fontSize=12;startSize=8;endSize=8;" edge="1" parent="1" source="vQjdyIGuHmJ7jAZlMQCY-10" target="vQjdyIGuHmJ7jAZlMQCY-48">
          <mxGeometry relative="1" as="geometry" />
        </mxCell>
        <mxCell id="vQjdyIGuHmJ7jAZlMQCY-53" value="所指导班级学生信息管理" style="ellipse;whiteSpace=wrap;html=1;" vertex="1" parent="1">
          <mxGeometry x="304" y="739" width="142" height="40" as="geometry" />
        </mxCell>
        <mxCell id="vQjdyIGuHmJ7jAZlMQCY-54" style="edgeStyle=none;curved=1;rounded=0;orthogonalLoop=1;jettySize=auto;html=1;exitX=1;exitY=0.5;exitDx=0;exitDy=0;entryX=0;entryY=0.5;entryDx=0;entryDy=0;fontSize=12;startSize=8;endSize=8;" edge="1" parent="1" source="vQjdyIGuHmJ7jAZlMQCY-10" target="vQjdyIGuHmJ7jAZlMQCY-53">
          <mxGeometry relative="1" as="geometry" />
        </mxCell>
        <mxCell id="vQjdyIGuHmJ7jAZlMQCY-55" value="论文审核" style="ellipse;whiteSpace=wrap;html=1;" vertex="1" parent="1">
          <mxGeometry x="324" y="789" width="110" height="40" as="geometry" />
        </mxCell>
        <mxCell id="vQjdyIGuHmJ7jAZlMQCY-56" style="edgeStyle=none;curved=1;rounded=0;orthogonalLoop=1;jettySize=auto;html=1;exitX=1;exitY=0.5;exitDx=0;exitDy=0;entryX=0;entryY=0.5;entryDx=0;entryDy=0;fontSize=12;startSize=8;endSize=8;" edge="1" parent="1" source="vQjdyIGuHmJ7jAZlMQCY-10" target="vQjdyIGuHmJ7jAZlMQCY-55">
          <mxGeometry relative="1" as="geometry" />
        </mxCell>
        <mxCell id="vQjdyIGuHmJ7jAZlMQCY-57" value="修改个人信息" style="ellipse;whiteSpace=wrap;html=1;" vertex="1" parent="1">
          <mxGeometry x="312" y="839" width="110" height="40" as="geometry" />
        </mxCell>
        <mxCell id="vQjdyIGuHmJ7jAZlMQCY-58" style="edgeStyle=none;curved=1;rounded=0;orthogonalLoop=1;jettySize=auto;html=1;exitX=1;exitY=0.5;exitDx=0;exitDy=0;entryX=0;entryY=0.5;entryDx=0;entryDy=0;fontSize=12;startSize=8;endSize=8;" edge="1" parent="1" source="vQjdyIGuHmJ7jAZlMQCY-10" target="vQjdyIGuHmJ7jAZlMQCY-57">
          <mxGeometry relative="1" as="geometry" />
        </mxCell>
        <mxCell id="vQjdyIGuHmJ7jAZlMQCY-59" value="注销" style="ellipse;whiteSpace=wrap;html=1;" vertex="1" parent="1">
          <mxGeometry x="252" y="528" width="110" height="40" as="geometry" />
        </mxCell>
        <mxCell id="vQjdyIGuHmJ7jAZlMQCY-60" style="edgeStyle=none;curved=1;rounded=0;orthogonalLoop=1;jettySize=auto;html=1;exitX=1;exitY=0.5;exitDx=0;exitDy=0;entryX=0;entryY=0.5;entryDx=0;entryDy=0;fontSize=12;startSize=8;endSize=8;" edge="1" parent="1" source="vQjdyIGuHmJ7jAZlMQCY-1" target="vQjdyIGuHmJ7jAZlMQCY-59">
          <mxGeometry relative="1" as="geometry" />
        </mxCell>
        <mxCell id="vQjdyIGuHmJ7jAZlMQCY-61" value="注销" style="ellipse;whiteSpace=wrap;html=1;" vertex="1" parent="1">
          <mxGeometry x="290" y="892" width="110" height="40" as="geometry" />
        </mxCell>
        <mxCell id="vQjdyIGuHmJ7jAZlMQCY-62" style="edgeStyle=none;curved=1;rounded=0;orthogonalLoop=1;jettySize=auto;html=1;exitX=1;exitY=0.5;exitDx=0;exitDy=0;entryX=0;entryY=0.5;entryDx=0;entryDy=0;fontSize=12;startSize=8;endSize=8;" edge="1" parent="1" source="vQjdyIGuHmJ7jAZlMQCY-10" target="vQjdyIGuHmJ7jAZlMQCY-61">
          <mxGeometry relative="1" as="geometry" />
        </mxCell>
        <mxCell id="vQjdyIGuHmJ7jAZlMQCY-63" value="登录" style="ellipse;whiteSpace=wrap;html=1;" vertex="1" parent="1">
          <mxGeometry x="285" y="1025" width="110" height="40" as="geometry" />
        </mxCell>
        <mxCell id="vQjdyIGuHmJ7jAZlMQCY-64" value="身份验证" style="ellipse;whiteSpace=wrap;html=1;" vertex="1" parent="1">
          <mxGeometry x="491" y="1025" width="110" height="40" as="geometry" />
        </mxCell>
        <mxCell id="vQjdyIGuHmJ7jAZlMQCY-65" value="&amp;lt;&amp;lt;include&amp;gt;&amp;gt;" style="text;html=1;align=center;verticalAlign=middle;resizable=0;points=[];autosize=1;strokeColor=none;fillColor=none;fontSize=16;" vertex="1" parent="1">
          <mxGeometry x="390" y="1016" width="110" height="30" as="geometry" />
        </mxCell>
        <mxCell id="vQjdyIGuHmJ7jAZlMQCY-66" style="edgeStyle=none;curved=1;rounded=0;orthogonalLoop=1;jettySize=auto;html=1;exitX=1;exitY=0.5;exitDx=0;exitDy=0;entryX=0;entryY=0.5;entryDx=0;entryDy=0;fontSize=12;startSize=8;endSize=8;" edge="1" parent="1" source="vQjdyIGuHmJ7jAZlMQCY-22" target="vQjdyIGuHmJ7jAZlMQCY-63">
          <mxGeometry relative="1" as="geometry" />
        </mxCell>
        <mxCell id="vQjdyIGuHmJ7jAZlMQCY-67" value="提交课程论文及信息" style="ellipse;whiteSpace=wrap;html=1;" vertex="1" parent="1">
          <mxGeometry x="318" y="1078" width="110" height="40" as="geometry" />
        </mxCell>
        <mxCell id="vQjdyIGuHmJ7jAZlMQCY-68" value="查看课程论文审核状态" style="ellipse;whiteSpace=wrap;html=1;" vertex="1" parent="1">
          <mxGeometry x="331" y="1131" width="127" height="40" as="geometry" />
        </mxCell>
        <mxCell id="vQjdyIGuHmJ7jAZlMQCY-69" style="edgeStyle=none;curved=1;rounded=0;orthogonalLoop=1;jettySize=auto;html=1;exitX=0.5;exitY=1;exitDx=0;exitDy=0;fontSize=12;startSize=8;endSize=8;" edge="1" parent="1" source="vQjdyIGuHmJ7jAZlMQCY-68" target="vQjdyIGuHmJ7jAZlMQCY-68">
          <mxGeometry relative="1" as="geometry" />
        </mxCell>
        <mxCell id="vQjdyIGuHmJ7jAZlMQCY-70" style="edgeStyle=none;curved=1;rounded=0;orthogonalLoop=1;jettySize=auto;html=1;exitX=1;exitY=0.5;exitDx=0;exitDy=0;entryX=0;entryY=0.5;entryDx=0;entryDy=0;fontSize=12;startSize=8;endSize=8;" edge="1" parent="1" source="vQjdyIGuHmJ7jAZlMQCY-22" target="vQjdyIGuHmJ7jAZlMQCY-67">
          <mxGeometry relative="1" as="geometry" />
        </mxCell>
        <mxCell id="vQjdyIGuHmJ7jAZlMQCY-71" style="edgeStyle=none;curved=1;rounded=0;orthogonalLoop=1;jettySize=auto;html=1;exitX=1;exitY=0.5;exitDx=0;exitDy=0;fontSize=12;startSize=8;endSize=8;" edge="1" parent="1" source="vQjdyIGuHmJ7jAZlMQCY-22" target="vQjdyIGuHmJ7jAZlMQCY-68">
          <mxGeometry relative="1" as="geometry" />
        </mxCell>
        <mxCell id="vQjdyIGuHmJ7jAZlMQCY-72" value="修改个人信息" style="ellipse;whiteSpace=wrap;html=1;" vertex="1" parent="1">
          <mxGeometry x="311" y="1187" width="127" height="40" as="geometry" />
        </mxCell>
        <mxCell id="vQjdyIGuHmJ7jAZlMQCY-73" style="edgeStyle=none;curved=1;rounded=0;orthogonalLoop=1;jettySize=auto;html=1;exitX=1;exitY=0.5;exitDx=0;exitDy=0;entryX=0;entryY=0.5;entryDx=0;entryDy=0;fontSize=12;startSize=8;endSize=8;" edge="1" parent="1" source="vQjdyIGuHmJ7jAZlMQCY-22" target="vQjdyIGuHmJ7jAZlMQCY-72">
          <mxGeometry relative="1" as="geometry" />
        </mxCell>
        <mxCell id="vQjdyIGuHmJ7jAZlMQCY-74" value="注销" style="ellipse;whiteSpace=wrap;html=1;" vertex="1" parent="1">
          <mxGeometry x="278" y="1241" width="127" height="40" as="geometry" />
        </mxCell>
        <mxCell id="vQjdyIGuHmJ7jAZlMQCY-75" style="edgeStyle=none;curved=1;rounded=0;orthogonalLoop=1;jettySize=auto;html=1;exitX=1;exitY=0.5;exitDx=0;exitDy=0;entryX=0;entryY=0.5;entryDx=0;entryDy=0;fontSize=12;startSize=8;endSize=8;" edge="1" parent="1" source="vQjdyIGuHmJ7jAZlMQCY-22" target="vQjdyIGuHmJ7jAZlMQCY-74">
          <mxGeometry relative="1" as="geometry" />
        </mxCell>
        <mxCell id="vQjdyIGuHmJ7jAZlMQCY-76" value="" style="endArrow=classic;html=1;rounded=0;fontSize=12;startSize=8;endSize=8;curved=1;dashed=1;" edge="1" parent="1">
          <mxGeometry width="50" height="50" relative="1" as="geometry">
            <mxPoint x="411" y="1045" as="sourcePoint" />
            <mxPoint x="481" y="1045" as="targetPoint" />
          </mxGeometry>
        </mxCell>
      </root>
    </mxGraphModel>
  </diagram>
</mxfile>
